<svg width="20" height="20" viewBox="0 0 20 20" fill="none" xmlns="http://www.w3.org/2000/svg">
<path d="M3.755 18.283L2 6H18L16.245 18.283C16.1769 18.7596 15.9391 19.1956 15.5754 19.511C15.2117 19.8264 14.7464 20 14.265 20H5.735C5.25358 20 4.7883 19.8264 4.42458 19.511C4.06086 19.1956 3.82312 18.7596 3.755 18.283ZM19 2H14V1C14 0.734783 13.8946 0.48043 13.7071 0.292893C13.5196 0.105357 13.2652 0 13 0H7C6.73478 0 6.48043 0.105357 6.29289 0.292893C6.10536 0.48043 6 0.734783 6 1V2H1C0.734783 2 0.48043 2.10536 0.292893 2.29289C0.105357 2.48043 0 2.73478 0 3C0 3.26522 0.105357 3.51957 0.292893 3.70711C0.48043 3.89464 0.734783 4 1 4H19C19.2652 4 19.5196 3.89464 19.7071 3.70711C19.8946 3.51957 20 3.26522 20 3C20 2.73478 19.8946 2.48043 19.7071 2.29289C19.5196 2.10536 19.2652 2 19 2Z" fill="#AABDD5"/>
</svg>
