<svg width="60" height="60" viewBox="0 0 60 60" fill="none" xmlns="http://www.w3.org/2000/svg">
<rect x="0.5" y="0.5" width="59" height="59" rx="29.5" stroke="#1F1F1F" stroke-opacity="0.5"/>
<path d="M30.0244 23.3474C30.5715 23.3333 31.004 22.8617 30.9906 22.2939C30.9769 21.7261 30.5226 21.2772 29.9756 21.2912L30.0244 23.3474ZM22.8822 30.2627H23.873C23.873 30.255 23.8729 30.2473 23.8727 30.2395L22.8822 30.2627ZM22.8822 33.4397L22.9338 34.4668C23.4602 34.4382 23.873 33.9868 23.873 33.4397H22.8822ZM22.8822 37.6767L22.8305 38.7038C22.8477 38.7047 22.8649 38.7051 22.8822 38.7051V37.6767ZM26.995 38.7051C27.5422 38.7051 27.9857 38.2447 27.9857 37.6767C27.9857 37.1088 27.5422 36.6483 26.995 36.6483V38.7051ZM29.0092 22.3193C29.0092 22.8872 29.4528 23.3477 30 23.3477C30.5472 23.3477 30.9908 22.8872 30.9908 22.3193H29.0092ZM30.9908 19.0284C30.9908 18.4604 30.5472 18 30 18C29.4528 18 29.0092 18.4604 29.0092 19.0284H30.9908ZM30.0244 21.2912C29.4775 21.2772 29.0231 21.7261 29.0094 22.2939C28.996 22.8617 29.4285 23.3333 29.9756 23.3474L30.0244 21.2912ZM37.1179 30.2627L36.1272 30.2395C36.1271 30.2473 36.1271 30.255 36.1271 30.2627H37.1179ZM37.1179 33.4397H36.1271C36.1271 33.9868 36.5398 34.4382 37.0663 34.4668L37.1179 33.4397ZM37.1179 37.6767V38.7051C37.1351 38.7051 37.1523 38.7047 37.1696 38.7038L37.1179 37.6767ZM33.0051 36.6483C32.4579 36.6483 32.0143 37.1088 32.0143 37.6767C32.0143 38.2447 32.4579 38.7051 33.0051 38.7051V36.6483ZM27.9844 37.6804C27.9864 37.1125 27.5444 36.6504 26.9972 36.6483C26.45 36.6463 26.0048 37.1051 26.0029 37.673L27.9844 37.6804ZM27.8734 40.0078L28.5966 39.3048L28.5949 39.303L27.8734 40.0078ZM32.1241 40.0078L31.4025 39.303L31.4009 39.3048L32.1241 40.0078ZM33.9946 37.673C33.9926 37.1051 33.5474 36.6463 33.0002 36.6483C32.453 36.6504 32.011 37.1125 32.0129 37.6804L33.9946 37.673ZM26.9924 36.6483C26.4452 36.6483 26.0016 37.1088 26.0016 37.6767C26.0016 38.2447 26.4452 38.7051 26.9924 38.7051V36.6483ZM33.0051 38.7051C33.5523 38.7051 33.9959 38.2447 33.9959 37.6767C33.9959 37.1088 33.5523 36.6483 33.0051 36.6483V38.7051ZM29.9756 21.2912C25.3808 21.4091 21.787 25.4584 21.8916 30.2858L23.8727 30.2395C23.7916 26.4968 26.5689 23.436 30.0244 23.3474L29.9756 21.2912ZM21.8913 30.2627V33.4397H23.873V30.2627H21.8913ZM22.8305 32.4127C21.2227 32.4999 20 33.9043 20 35.5582H21.9816C21.9816 34.953 22.4221 34.4945 22.9338 34.4668L22.8305 32.4127ZM20 35.5582C20 37.2122 21.2227 38.6166 22.8305 38.7038L22.9338 36.6497C22.4221 36.622 21.9816 36.1635 21.9816 35.5582H20ZM22.8822 38.7051H26.995V36.6483H22.8822V38.7051ZM30.9908 22.3193V19.0284H29.0092V22.3193H30.9908ZM29.9756 23.3474C33.4311 23.436 36.2083 26.4968 36.1272 30.2395L38.1085 30.2858C38.2131 25.4584 34.6192 21.4091 30.0244 21.2912L29.9756 23.3474ZM36.1271 30.2627V33.4397H38.1087V30.2627H36.1271ZM37.0663 34.4668C37.5779 34.4945 38.0184 34.953 38.0184 35.5582H40C40 33.9043 38.7773 32.4999 37.1696 32.4127L37.0663 34.4668ZM38.0184 35.5582C38.0184 36.1635 37.5779 36.622 37.0663 36.6497L37.1696 38.7038C38.7773 38.6166 40 37.2122 40 35.5582H38.0184ZM37.1179 36.6483H33.0051V38.7051H37.1179V36.6483ZM26.0029 37.673C25.999 38.8021 26.4086 39.8929 27.1519 40.7126L28.5949 39.303C28.204 38.8717 27.9824 38.2901 27.9844 37.6804L26.0029 37.673ZM27.1503 40.7108C27.8905 41.531 28.9184 42 29.9987 42V39.9432C29.4747 39.9432 28.9678 39.7161 28.5966 39.3048L27.1503 40.7108ZM29.9987 42C31.0791 42 32.107 41.531 32.8472 40.7108L31.4009 39.3048C31.0297 39.7161 30.5226 39.9432 29.9987 39.9432V42ZM32.8455 40.7126C33.5889 39.8929 33.9984 38.8021 33.9946 37.673L32.0129 37.6804C32.0151 38.2901 31.7935 38.8717 31.4025 39.303L32.8455 40.7126ZM26.9924 38.7051H33.0051V36.6483H26.9924V38.7051Z" fill="#1F1F1F"/>
<circle cx="37" cy="19" r="6" fill="#E71313"/>
</svg>
